<svg width="32" height="20" viewBox="0 0 32 20" fill="none" xmlns="http://www.w3.org/2000/svg">
  <g clip-path="url(#clip0_1_28)">
    <path fill-rule="evenodd" clip-rule="evenodd" d="M0 9.5785C0 4.28845 4.28845 7.3351e-09 9.5785 2.31755e-09L12.0219 0C12.4765 -4.31202e-10 12.8451 0.368542 12.8451 0.823163V5.56251C12.8451 6.01714 12.4765 6.38568 12.0219 6.38568H8.40221C7.28851 6.38568 6.38568 7.28851 6.38568 8.40221V10.7549C6.38568 11.8685 7.28851 12.7713 8.40221 12.7713H12.0219C12.4765 12.7713 12.8451 13.1399 12.8451 13.5945V18.3339C12.8451 18.7885 12.4765 19.157 12.0219 19.157H9.5785C4.28845 19.157 0 14.8686 0 9.5785Z" fill="currentColor"/>
    <path fill-rule="evenodd" clip-rule="evenodd" d="M32.002 9.5785C32.002 14.8686 27.7135 19.157 22.4234 19.157H19.98C19.5254 19.157 19.1569 18.7885 19.1569 18.3339V13.5945C19.1569 13.1399 19.5254 12.7713 19.98 12.7713H23.5997C24.7134 12.7713 25.6163 11.8685 25.6163 10.7549V8.40221C25.6163 7.28851 24.7134 6.38568 23.5997 6.38568H19.98C19.5254 6.38568 19.1569 6.01714 19.1569 5.56251V0.823163C19.1569 0.368543 19.5254 -3.97442e-08 19.98 0L22.4234 2.13609e-07C27.7135 6.76082e-07 32.002 4.28845 32.002 9.5785Z" fill="currentColor"/>
  </g>
  <defs>
    <clipPath id="clip0_1_28">
      <rect width="32" height="19.1546" fill="white"/>
    </clipPath>
  </defs>
</svg>
